#!OML:ASF E:\acrobat2\Project_11_07_03\Capture day 1\Session 1\Acrobat.ASF
:FULLY-SPECIFIED
:DEGREES
817
root 11.426 18.1675 37.3283 4.08943 4.1341 -0.0469025
lowerback -3.86577 0.927619 5.06424
upperback 1.03938 0.975892 0.0861211
thorax 3.32888 0.586917 -2.68594
lowerneck 3.28302 -5.8833 -4.99301
upperneck 1.77646 -8.12468 10.4812
head 0.697476 -4.10846 4.32289
rclavicle -1.9133e-015 6.36111e-015
rhumerus -24.2105 0.160886 -69.097
rradius 46.6536
rwrist -2.51607
rhand -2.63403 -44.4871
rfingers 7.12502
rthumb 23.0652 -73.1267
lclavicle -1.9133e-015 6.36111e-015
lhumerus -40.1885 7.13285 77.725
lradius 12.7156
lwrist -1.08569
lhand -2.81508 -6.70124
lfingers 7.12502
lthumb 22.8914 21.96
rfemur 1.34156 6.81933 20.1973
rtibia 0.660419
rfoot -16.5753 -26.2021
rtoes 1.79551
lfemur -11.1029 -0.764658 -8.92025
ltibia 20.0327
lfoot -13.1427 -2.60113
ltoes 20.9597
818
root 11.4438 18.1619 37.3782 3.98912 4.05384 -0.088349
lowerback -3.9689 0.927155 4.99912
upperback 1.02618 0.971308 0.136473
thorax 3.37076 0.58348 -2.59636
lowerneck 3.26035 -5.92229 -5.04019
upperneck 1.92662 -8.1928 10.6269
head 0.765967 -4.13954 4.37961
rclavicle -1.18525e-014 5.1684e-015
rhumerus -24.2416 0.259169 -69.0621
rradius 46.7857
rwrist -2.5072
rhand -2.64031 -44.5058
rfingers 7.12502
rthumb 23.0591 -73.1462
lclavicle -1.18525e-014 5.1684e-015
lhumerus -40.5703 8.12634 77.0755
lradius 12.5774
lwrist -1.5949
lhand -2.38428 -6.44372
lfingers 7.12502
lthumb 23.3048 22.1658
rfemur 1.61356 6.70405 20.1996
rtibia 0.669657
rfoot -16.5842 -26.0092
rtoes 1.317
lfemur -10.508 -1.46975 -8.92966
ltibia 19.0581
lfoot -12.3948 -2.48133
ltoes 22.9357
819
root 11.4624 18.1562 37.428 3.88788 3.96901 -0.134847
lowerback -4.07882 0.927612 4.93555
upperback 1.00976 0.967813 0.182287
thorax 3.41336 0.580598 -2.51222
lowerneck 3.23188 -5.96445 -5.10529
upperneck 2.07575 -8.26693 10.8114
head 0.838912 -4.17351 4.45355
rclavicle 1.06847e-014 -1.07344e-014
rhumerus -24.2829 0.351479 -69.0554
rradius 46.8479
rwrist -2.49503
rhand -2.67368 -44.4842
rfingers 7.12502
rthumb 23.0271 -73.1286
lclavicle 1.06847e-014 -1.07344e-014
lhumerus -40.9274 9.12093 76.4091
lradius 12.4426
lwrist -2.18043
lhand -1.99258 -6.21146
lfingers 7.12502
lthumb 23.6805 22.3499
rfemur 1.87649 6.5372 20.1924
rtibia 0.694267
rfoot -16.569 -25.7648
rtoes 0.781411
lfemur -9.92158 -2.0586 -8.94296
ltibia 18.1963
lfoot -11.7215 -2.27976
ltoes 25.0343
820
root 11.4814 18.1502 37.4772 3.78957 3.87393 -0.195873
lowerback -4.19136 0.931177 4.87868
upperback 0.984365 0.968392 0.225616
thorax 3.44864 0.579562 -2.43417
lowerneck 3.23379 -6.00937 -5.17719
upperneck 2.18854 -8.34396 11.0225
head 0.897014 -4.21044 4.54037
rclavicle -1.56543e-014 -1.59028e-014
rhumerus -24.3358 0.438402 -69.0879
rradius 46.8287
rwrist -2.49864
rhand -2.76524 -44.415
rfingers 7.12502
rthumb 22.9392 -73.0703
lclavicle -1.56543e-014 -1.59028e-014
lhumerus -41.2612 9.9893 75.814
lradius 12.3277
lwrist -2.69042
lhand -1.68154 -6.02107
lfingers 7.12502
lthumb 23.9788 22.5014
rfemur 2.12374 6.36803 20.1961
rtibia 0.737286
rfoot -16.5732 -25.4999
rtoes 0.274807
lfemur -9.35279 -2.51379 -8.94201
ltibia 17.4621
lfoot -11.2814 -2.00505
ltoes 26.8612
821
root 11.5005 18.1442 37.5257 3.69504 3.76966 -0.262138
lowerback -4.3011 0.938186 4.81723
upperback 0.948431 0.974498 0.265479
thorax 3.47181 0.58076 -2.35686
lowerneck 3.27372 -6.05632 -5.23995
upperneck 2.25592 -8.4211 11.2343
head 0.933499 -4.24926 4.6282
rclavicle 1.51573e-015 -1.27222e-014
rhumerus -24.409 0.514181 -69.1595
rradius 46.7338
rwrist -2.53019
rhand -2.84964 -44.3837
rfingers 7.12502
rthumb 22.8583 -73.049
lclavicle 1.51573e-015 -1.27222e-014
lhumerus -41.5591 10.6233 75.3741
lradius 12.2453
lwrist -3.01794
lhand -1.45664 -5.8608
lfingers 7.12502
lthumb 24.1945 22.6331
rfemur 2.35669 6.22209 20.2048
rtibia 0.7977
rfoot -16.6206 -25.2305
rtoes -0.109054
lfemur -8.80554 -2.82441 -8.93764
ltibia 16.8623
lfoot -11.1469 -1.7058
ltoes 28.0027
822
root 11.52 18.138 37.5734 3.60957 3.6728 -0.306401
lowerback -4.4167 0.944357 4.72777
upperback 0.904865 0.981479 0.293299
thorax 3.49006 0.581721 -2.27623
lowerneck 3.33664 -6.10484 -5.27128
upperneck 2.28859 -8.49645 11.4137
head 0.951351 -4.28828 4.69989
rclavicle 1.16786e-015 4.77083e-015
rhumerus -24.5141 0.559693 -69.2652
rradius 46.5817
rwrist -2.57651
rhand -3.02276 -44.3406
rfingers 7.12502
rthumb 22.6921 -73.0263
lclavicle 1.16786e-015 4.77083e-015
lhumerus -41.8045 10.9875 75.1204
lradius 12.199
lwrist -3.14832
lhand -1.30457 -5.73658
lfingers 7.12502
lthumb 24.3402 22.7378
rfemur 2.58079 6.1086 20.1833
rtibia 0.839253
rfoot -16.6519 -25.0114
rtoes -0.523952
lfemur -8.28615 -3.01799 -8.96871
ltibia 16.3843
lfoot -11.2997 -1.44091
ltoes 28.3724
823
root 11.5392 18.1317 37.6204 3.53061 3.5884 -0.358855
lowerback -4.54093 0.946435 4.63066
upperback 0.856033 0.98325 0.322401
thorax 3.50714 0.579828 -2.19031
lowerneck 3.39773 -6.15556 -5.2735
upperneck 2.32332 -8.57293 11.5468
head 0.966545 -4.32755 4.7491
rclavicle 5.56597e-015 1.63003e-014
rhumerus -24.6582 0.577308 -69.4005
rradius 46.3947
rwrist -2.63586
rhand -3.14206 -44.2855
rfingers 7.12502
rthumb 22.5776 -72.9852
lclavicle 5.56597e-015 1.63003e-014
lhumerus -41.9946 11.1281 75.0308
lradius 12.1826
lwrist -3.13503
lhand -1.2041 -5.66923
lfingers 7.12502
lthumb 24.4366 22.7922
rfemur 2.7923 6.01409 20.176
rtibia 0.894819
rfoot -16.709 -24.8163
rtoes -0.860961
lfemur -7.79205 -3.12548 -8.98849
ltibia 15.9951
lfoot -11.6439 -1.26379
ltoes 28.2498
824
root 11.5583 18.1254 37.6664 3.45283 3.52949 -0.448488
lowerback -4.67436 0.939466 4.55986
upperback 0.809712 0.970712 0.361121
thorax 3.53134 0.57146 -2.11017
lowerneck 3.44302 -6.20932 -5.22625
upperneck 2.39457 -8.66379 12.0021
head 0.899189 -4.36242 4.40715
rclavicle 1.46604e-015 -4.77083e-015
rhumerus -24.8269 0.575142 -69.5605
rradius 46.1746
rwrist -2.70457
rhand -3.23453 -44.2329
rfingers 7.12502
rthumb 22.4889 -72.9434
lclavicle 1.46604e-015 -4.77083e-015
lhumerus -42.119 11.136 75.0463
lradius 12.188
lwrist -3.08366
lhand -1.11914 -5.64432
lfingers 7.12502
lthumb 24.518 22.8061
rfemur 3.00154 5.95684 20.22
rtibia 0.936229
rfoot -16.771 -24.6854
rtoes -1.15936
lfemur -7.31544 -3.1897 -8.96126
ltibia 15.647
lfoot -12.0304 -1.18971
ltoes 27.9972
825
root 11.5773 18.1197 37.7112 3.38161 3.5035 -0.576153
lowerback -4.81899 0.923695 4.52518
upperback 0.766902 0.943491 0.405659
thorax 3.56512 0.556724 -2.04528
lowerneck 3.44319 -6.26651 -5.23787
upperneck 2.46425 -8.75143 12.1229
head 0.932986 -4.40418 4.44233
rclavicle 6.21202e-016 2.22639e-014
rhumerus -25.0156 0.552748 -69.743
rradius 45.9168
rwrist -2.76569
rhand -3.33615 -44.1815
rfingers 7.12502
rthumb 22.3913 -72.9038
lclavicle 6.21202e-016 2.22639e-014
lhumerus -42.1675 11.0631 75.1282
lradius 12.2037
lwrist -3.05791
lhand -1.04326 -5.64822
lfingers 7.12502
lthumb 24.5907 22.7923
rfemur 3.20276 5.93369 20.316
rtibia 0.963681
rfoot -16.8271 -24.6192
rtoes -1.40832
lfemur -6.85903 -3.25959 -8.88406
ltibia 15.2956
lfoot -12.3403 -1.19862
ltoes 28.0881
826
root 11.5961 18.1155 37.7544 3.3202 3.5065 -0.705128
lowerback -4.95774 0.901929 4.48882
upperback 0.716591 0.909101 0.446957
thorax 3.5874 0.538092 -1.98364
lowerneck 3.45746 -6.32982 -5.31582
upperneck 2.50442 -8.8496 12.3197
head 0.96307 -4.45279 4.51171
rclavicle -1.90585e-014 -9.93923e-015
rhumerus -25.2445 0.50423 -69.9374
rradius 45.6266
rwrist -2.77797
rhand -3.41671 -44.1269
rfingers 7.12502
rthumb 22.314 -72.8584
lclavicle -1.90585e-014 -9.93923e-015
lhumerus -42.1375 10.8347 75.3295
lradius 12.2184
lwrist -2.95983
lhand -1.002 -5.67972
lfingers 7.12502
lthumb 24.6303 22.7554
rfemur 3.38653 5.94273 20.4209
rtibia 0.995088
rfoot -16.8603 -24.6193
rtoes -1.69389
lfemur -6.42249 -3.36384 -8.79889
ltibia 14.915
lfoot -12.5269 -1.24831
ltoes 28.648
827
root 11.6145 18.1131 37.7957 3.26211 3.5281 -0.809271
lowerback -5.07251 0.881767 4.43212
upperback 0.654356 0.880407 0.472811
thorax 3.58412 0.521383 -1.9266
lowerneck 3.4915 -6.3968 -5.43073
upperneck 2.52466 -8.95425 12.5651
head 0.988706 -4.50602 4.60261
rclavicle -9.7156e-015 3.18055e-015
rhumerus -25.5287 0.394598 -70.1376
rradius 45.3028
rwrist -2.69621
rhand -3.43809 -44.0967
rfingers 7.12502
rthumb 22.2935 -72.8307
lclavicle -9.7156e-015 3.18055e-015
lhumerus -42.0283 10.3626 75.6986
lradius 12.2344
lwrist -2.68796
lhand -1.00884 -5.7238
lfingers 7.12502
lthumb 24.6237 22.7123
rfemur 3.55865 5.9673 20.5001
rtibia 1.03353
rfoot -16.8541 -24.6682
rtoes -2.11257
lfemur -5.99293 -3.5003 -8.73952
ltibia 14.4988
lfoot -12.6137 -1.28485
ltoes 29.4688
828
root 11.6331 18.1126 37.8354 3.19854 3.55697 -0.883065
lowerback -5.1609 0.869849 4.36208
upperback 0.586863 0.866104 0.473599
thorax 3.56171 0.511415 -1.88724
lowerneck 3.53907 -6.46349 -5.56224
upperneck 2.52485 -9.05921 12.8592
head 1.00955 -4.56044 4.71175
rclavicle 2.8948e-015 0
rhumerus -25.8669 0.187785 -70.353
rradius 44.9366
rwrist -2.52239
rhand -3.47644 -44.0813
rfingers 7.12502
rthumb 22.2566 -72.8197
lclavicle 2.8948e-015 0
lhumerus -41.8479 9.66775 76.2025
lradius 12.2599
lwrist -2.27581
lhand -1.0628 -5.77156
lfingers 7.12502
lthumb 24.572 22.6715
rfemur 3.73249 5.97438 20.5419
rtibia 1.07649
rfoot -16.7948 -24.732
rtoes -2.75777
lfemur -5.55697 -3.6431 -8.71697
ltibia 14.0603
lfoot -12.6407 -1.29269
ltoes 30.4882
829
root 11.6515 18.114 37.8736 3.11934 3.583 -0.927102
lowerback -5.21999 0.868807 4.27458
upperback 0.523799 0.869693 0.452227
thorax 3.52865 0.510141 -1.85982
lowerneck 3.58075 -6.5278 -5.682
upperneck 2.51416 -9.16013 13.1705
head 1.02848 -4.61284 4.82433
rclavicle -6.42323e-015 -7.95139e-016
rhumerus -26.2511 -0.112178 -70.584
rradius 44.5274
rwrist -2.29635
rhand -3.45691 -44.1444
rfingers 7.12502
rthumb 22.2754 -72.8806
lclavicle -6.42323e-015 -7.95139e-016
lhumerus -41.6017 8.83836 76.7797
lradius 12.2905
lwrist -1.82792
lhand -1.16124 -5.81828
lfingers 7.12502
lthumb 24.4776 22.6376
rfemur 3.92583 5.97406 20.5554
rtibia 1.12893
rfoot -16.74 -24.7893
rtoes -3.49167
lfemur -5.10961 -3.74304 -8.72795
ltibia 13.6275
lfoot -12.6092 -1.2978
ltoes 31.5425
